<svg width="619" height="676" viewBox="0 0 619 676" fill="none" xmlns="http://www.w3.org/2000/svg">
<g clip-path="url(#clip0_31_276)">
<path d="M604.473 -0.0541649H353.047C345.38 -0.0541649 339.165 6.16161 339.165 13.8292V195.701C339.165 203.368 345.38 209.584 353.047 209.584H604.473C612.14 209.584 618.355 203.368 618.355 195.701V13.8292C618.355 6.16161 612.14 -0.0541649 604.473 -0.0541649Z" fill="#F2F6FB"/>
<path d="M381.143 193.274C367.187 193.274 355.873 181.845 355.873 167.747C355.873 153.649 367.187 142.22 381.143 142.22C395.099 142.22 406.412 153.649 406.412 167.747C406.412 181.845 395.099 193.274 381.143 193.274ZM381.198 167.64C383.063 167.64 384.574 166.132 384.574 164.273C384.574 162.413 383.063 160.906 381.198 160.906C379.333 160.906 377.822 162.413 377.822 164.273C377.822 166.132 379.333 167.64 381.198 167.64ZM381.198 169.323C377.818 169.323 375.078 172.055 375.078 175.426H387.318C387.318 172.055 384.578 169.323 381.198 169.323Z" fill="#D8DEED"/>
<path d="M355.873 45.8415C355.873 44.3048 357.113 43.0591 358.652 43.0591H535.823C537.358 43.0591 538.602 44.3069 538.602 45.8415V121.792C538.602 123.328 537.362 124.574 535.823 124.574H358.652C357.117 124.574 355.873 123.326 355.873 121.792V45.8415ZM424.537 162.992H563.997C566.794 162.992 569.061 165.259 569.061 168.057C569.061 170.854 566.794 173.122 563.997 173.122H424.537C421.74 173.122 419.472 170.854 419.472 168.057C419.472 165.259 421.74 162.992 424.537 162.992ZM424.537 179.453H589.351C592.148 179.453 594.415 181.72 594.415 184.518C594.415 187.315 592.148 189.583 589.351 189.583H424.537C421.74 189.583 419.472 187.315 419.472 184.518C419.472 181.72 421.74 179.453 424.537 179.453ZM424.537 146.531H528.501C531.298 146.531 533.566 148.799 533.566 151.596C533.566 154.393 531.298 156.661 528.501 156.661H424.537C421.74 156.661 419.472 154.393 419.472 151.596C419.472 148.799 421.74 146.531 424.537 146.531ZM339.165 11.802C339.165 5.25402 344.472 -0.0541649 351.017 -0.0541649H607.042C613.588 -0.0541649 618.894 5.25258 618.894 11.802V23.6581H339.165V11.802Z" fill="#E1E5F0"/>
<path d="M560.207 106.743H593.135C598.058 106.743 602.05 110.734 602.05 115.658C602.05 120.582 598.058 124.574 593.135 124.574H560.207C555.283 124.574 551.292 120.582 551.292 115.658C551.292 110.734 555.283 106.743 560.207 106.743Z" fill="#429EBD"/>
<path d="M355.065 17.1911C357.892 17.1911 360.185 14.899 360.185 12.0714C360.185 9.24391 357.892 6.95174 355.065 6.95174C352.237 6.95174 349.944 9.24391 349.944 12.0714C349.944 14.899 352.237 17.1911 355.065 17.1911Z" fill="#FF5645"/>
<path d="M371.773 17.1911C374.601 17.1911 376.893 14.899 376.893 12.0714C376.893 9.24391 374.601 6.95174 371.773 6.95174C368.945 6.95174 366.653 9.24391 366.653 12.0714C366.653 14.899 368.945 17.1911 371.773 17.1911Z" fill="#FFCB3D"/>
<path d="M389.02 17.1911C391.848 17.1911 394.14 14.899 394.14 12.0714C394.14 9.24391 391.848 6.95174 389.02 6.95174C386.192 6.95174 383.9 9.24391 383.9 12.0714C383.9 14.899 386.192 17.1911 389.02 17.1911Z" fill="#3ABF7C"/>
<path d="M583.475 502.939V453.028C583.475 422.763 583.475 392.566 583.475 362.37V316.069C583.475 314.403 554.669 313.015 520.032 313.015H512.813C478.246 313.015 449.371 314.403 449.371 316.069V503.078C449.371 504.744 478.177 506.132 512.813 506.132H520.032C554.599 506.202 583.475 504.744 583.475 502.939Z" fill="#D8DEED"/>
<path d="M378.641 674.606L378.918 674.745C380.376 675.509 382.25 675.092 382.944 673.773L464.225 524.458C464.989 523.07 464.364 521.334 462.906 520.571L462.629 520.432C461.171 519.668 459.297 520.085 458.603 521.404L438.473 558.333C425.355 582.49 412.236 606.578 399.048 630.735L377.322 670.58C376.558 671.969 377.183 673.773 378.641 674.606Z" fill="#D8DEED"/>
<path d="M580.49 518.002H529.611C498.792 518.002 467.973 518.002 437.224 518.002H390.024C388.358 518.002 386.901 519.391 386.901 521.057V521.404C386.901 523.07 388.289 524.458 390.024 524.458H580.629C582.295 524.458 583.752 523.07 583.752 521.404V521.057C583.752 519.391 582.295 518.002 580.49 518.002Z" fill="#D8DEED"/>
<path d="M605.27 670.58L583.544 630.735C570.425 606.578 557.306 582.49 544.118 558.333L523.989 521.404C523.295 520.085 521.421 519.599 519.963 520.432L519.685 520.571C518.228 521.334 517.603 523.139 518.366 524.458L599.648 673.773C600.342 675.092 602.216 675.578 603.673 674.745L603.951 674.606C605.409 673.773 606.033 671.969 605.27 670.58Z" fill="#D8DEED"/>
<path d="M258.581 497.348C263.57 499.828 265.274 502.282 265.539 504.428C265.929 508.04 265.085 510.942 263.073 515.715C259.178 525.26 255.868 534.934 253.207 544.867C252.428 544.699 251.65 544.522 250.875 544.336C252.501 550.537 252.444 555.279 252.444 555.279C179.515 555.279 143.658 555.279 144.875 555.279C146.699 555.279 159.887 519.566 206.424 515.937C207.761 515.83 209.059 515.763 210.32 515.732C210.604 514.547 211.093 513.478 211.981 511.861C210.031 507.081 208.53 495.879 208.02 491.214C208.02 491.023 208.086 490.831 208.151 490.639C208.413 490.128 209.133 489.872 209.722 490.128L224.453 497.348C226.968 496.428 229.63 495.591 232.436 494.754C235.095 493.942 237.753 493.249 240.253 492.613L245.527 478.909C245.721 478.385 246.37 478.057 246.888 478.319C247.083 478.385 247.213 478.516 247.342 478.712C250.072 482.564 256.777 492.383 258.581 497.348Z" fill="#FBA94F"/>
<path d="M142.079 550.88C141.53 547.405 142.995 545.291 146.474 544.538C160.822 543.743 173.589 544.808 184.775 547.733C195.961 550.657 202.476 553.21 204.319 555.392H146.474C144.018 555.392 142.079 553.401 142.079 550.88ZM256.036 527.376C257.708 525.437 262.855 517.1 262.855 517.1C262.855 517.1 257.194 534.291 253.784 544.955C253.977 544.05 251.274 551.289 250.953 549.415V549.35C250.502 547.217 248.765 545.666 246.578 545.537C244.519 545.408 242.331 545.343 240.015 545.343C237.056 545.343 234.032 545.537 231.072 545.925L226.761 532.805C230.943 534.938 235.704 535.713 240.337 535.325C241.945 535.196 243.489 534.873 245.034 534.421C249.28 533.193 253.076 530.672 256.036 527.376ZM240.558 511.513C241.471 512.535 242.958 512.889 244.248 512.306C245.421 511.623 246.043 510.302 245.795 508.959C245.691 508.394 246.064 507.851 246.63 507.746C247.195 507.642 247.738 508.015 247.843 508.581C248.257 510.818 247.201 513.028 245.238 514.139L245.166 514.176C243.421 514.991 241.453 514.764 239.961 513.741C239.495 514.859 238.567 515.816 237.316 516.381C234.802 517.336 231.984 516.395 230.716 514.174C230.431 513.675 230.605 513.039 231.104 512.754C231.603 512.469 232.239 512.642 232.524 513.142C233.274 514.455 235.003 515.032 236.517 514.459C237.663 513.94 238.318 512.878 238.2 511.837C238.197 511.831 238.193 511.824 238.19 511.817C237.888 511.293 237.828 510.638 237.888 510.049C237.949 509.59 238.19 509.197 238.491 509.001C239.094 508.542 239.998 508.804 240.359 509.459C240.679 510.09 240.704 510.857 240.558 511.513ZM222.975 511.542C223.706 512.917 223.036 514.882 222.304 515.013C221.755 515.079 221.084 514.358 220.84 513.9C220.536 513.376 220.475 512.721 220.536 512.131C220.597 511.673 220.84 511.28 221.145 511.083C221.755 510.625 222.609 510.887 222.975 511.542ZM254.234 500.435C254.911 501.811 254.296 503.645 253.557 503.907C253.003 503.972 252.325 503.252 252.079 502.793C251.771 502.269 251.709 501.614 251.771 501.025C251.833 500.566 252.079 500.173 252.387 499.977C253.003 499.518 253.865 499.78 254.234 500.435Z" fill="#DF6F3A"/>
<path d="M340.934 669.453H450.06C451.694 669.453 453.019 670.778 453.019 672.411C453.019 674.045 451.694 675.37 450.06 675.37H340.934C339.3 675.37 337.976 674.045 337.976 672.411C337.976 670.778 339.3 669.453 340.934 669.453ZM463.334 669.453H532.329C533.963 669.453 535.288 670.778 535.288 672.411C535.288 674.045 533.963 675.37 532.329 675.37H463.334C461.7 675.37 460.376 674.045 460.376 672.411C460.376 670.778 461.7 669.453 463.334 669.453Z" fill="#DF6F3A"/>
<path d="M531.558 669.453H463.476L468.935 633.541H517.453L531.558 669.453ZM451.892 670.088C451.388 669.69 450.752 669.453 450.06 669.453H340.934C340.827 669.453 340.72 669.459 340.616 669.47C340.577 669.168 340.56 668.809 340.567 668.379C340.642 667.92 340.652 667.394 340.795 666.871C341.653 663.729 342.694 661.643 345.737 659.788C348.78 657.934 351.887 656.277 355.124 654.821C367.062 649.305 371.141 649.375 378.991 644.315C382.24 642.201 385.227 639.753 388.016 637.105C389.876 635.34 393.896 632.472 400.077 628.501L447.972 628.646L451.892 670.088Z" fill="#585859"/>
<path d="M530.998 514.918C530.888 547.086 529.783 589.82 529.402 604.52C529.335 606.567 529.602 612.107 525.589 615.6C524.452 616.624 523.315 617.045 521.175 617.948C519.503 618.671 512.011 620.839 497.029 622.043C496.093 622.104 495.089 622.164 494.086 622.104C478.636 621.562 474.823 620.598 468.87 618.912C464.924 617.828 462.048 614.456 461.647 610.481C459.774 592.958 454.624 545.204 454.223 540.989C453.687 535.63 453.219 529.548 452.818 522.622L452.605 519.38L434.095 512.084C441.825 541.678 449.325 572.331 456.028 602.804C456.363 604.297 456.965 607.657 455.226 610.83C452.015 616.866 443.655 616.555 423.656 618.919C400.112 621.719 390.28 624.643 384.929 618.67C383.123 616.741 382.522 614.75 382.321 613.817C377.438 589.613 353.226 519.364 343.795 468.965C343.795 468.84 343.728 468.778 343.728 468.654C340.718 452.414 352.022 437.107 368.81 435.054C374.362 434.37 379.378 433.71 384.929 433.026C386.611 432.829 388.289 432.772 389.95 432.847L472.822 431.41C521.973 430.982 515.205 425.276 530.575 432.348C540.821 437.063 547.797 450.484 551.504 472.613C552.831 489.439 545.996 503.54 530.998 514.918Z" fill="#429EBD"/>
<path opacity="0.176986" d="M531.082 514.854C531.088 513.174 531.091 511.522 531.091 509.905C531.091 497.38 531.158 486.601 531.292 479.676C531.425 474.196 532.429 444.086 519.453 437.824C518.316 437.282 517.179 436.86 514.905 436.077C513.099 435.475 503.735 432.344 491.696 432.825C483.87 433.127 472.098 433.608 462.4 441.136C449.023 451.553 449.357 467.993 449.491 470.643L452.692 519.415L434.192 512.122C429.039 492.391 423.782 473.13 418.59 454.705C415.043 442.165 403.187 433.486 390.181 432.843L472.822 431.41C521.973 430.982 515.205 425.276 530.575 432.348C540.821 437.063 547.797 450.484 551.504 472.613C552.829 489.407 546.021 503.487 531.082 514.854Z" fill="#444444"/>
<path d="M460.593 308.793C461.397 308.446 462.22 308.137 463.061 307.868L477.335 303.102C478.162 302.951 478.986 302.819 479.805 302.706C480.93 301.415 483.222 300.32 487.195 299.1C501.305 294.692 519.314 302.023 525.729 318.451C531.319 332.767 538.745 348.938 538.053 349.151C537.905 349.196 534.665 351.515 530.224 352.951C536.646 377.188 540.106 393.412 540.604 401.625C541.597 417.982 536.096 428.945 517.453 430.334C498.811 431.723 472.864 433.681 469.815 428.257C467.854 424.769 458.641 403.237 442.173 363.661C436.017 365.654 432.802 366.674 432.528 366.722C431.669 366.871 428.747 357.245 426.845 342.025C424.662 324.56 435.254 309.995 452.807 307.015C455.709 306.511 458.304 307.103 460.593 308.793Z" fill="#DF6F3A"/>
<path opacity="0.176986" d="M460.635 308.825C443.176 316.066 434.508 340.868 440.322 359.208C440.964 360.711 441.597 362.191 442.22 363.646C436.033 365.649 432.802 366.674 432.528 366.722C431.669 366.871 428.747 357.245 426.845 342.025C424.662 324.56 435.254 309.995 452.807 307.015C455.727 306.508 458.336 307.111 460.635 308.825Z" fill="#444444"/>
<path d="M431.816 310.866C431.816 310.866 430.545 315.863 437.301 314.482C444.056 313.102 445.996 312.444 445.996 312.444L444.257 307.908L431.816 310.866Z" fill="#482D1F"/>
<path d="M470.008 307.352L482.448 365.434L485.404 349.666C500.993 352.72 513.679 354.247 523.463 354.247C523.515 354.247 523.568 354.247 523.62 354.246C521.416 362.679 516.192 399.269 508.065 413.427C497.791 431.324 491.795 433.289 476.624 431.826C475.07 431.677 473.605 431.402 472.222 431.003C472.885 431.219 473.569 431.401 474.274 431.548L395.785 432.754L395.778 432.775L395.54 432.758L395.237 432.762C395.093 432.765 394.952 432.745 394.819 432.705L362.705 430.344C357.552 429.966 352.809 427.396 349.676 423.287L346.067 418.553C345.212 417.431 344.658 416.109 344.459 414.712C343.816 410.197 346.955 406.016 351.469 405.373L361.064 404.006C367.641 403.069 374.318 403.081 380.892 404.042L400.702 406.938C415.743 402.211 435.813 396.002 440.825 394.932L434.602 366.056L441.958 363.169C444.267 368.44 446.44 373.392 448.476 378.024C446.169 356.017 446.429 331.714 443.654 310.125L436.699 310.275C432.552 311.918 423.857 314.679 422.92 308.828C422.92 308.828 434.425 304.16 442.518 300.742L443.12 300.216C443.655 299.756 444.123 299.493 444.792 299.295C444.925 299.23 445.059 299.23 445.193 299.23L445.637 299.166C444.433 299.256 443.587 299.235 443.293 299.203C437.699 298.958 430.842 289.054 427.543 274.621C427.238 273.459 427.133 272.28 426.962 271.107L426.118 259.367C425.885 256.747 426.391 254.13 427.525 251.788C427.635 251.515 427.751 251.307 427.867 251.099C428.275 250.404 428.683 249.709 429.103 249.145C430.715 246.894 432.713 245.205 434.819 243.968C439.829 241.425 445.681 240.79 448.981 240.902C449.453 240.927 450.937 240.998 453.026 241.082C454.999 241.374 456.888 241.476 458.826 241.375C459.898 241.349 460.779 242.197 460.872 243.245L461.698 260.069C461.704 260.193 461.737 260.369 461.796 260.595C468.531 257.856 473.353 259.419 476.262 265.284C480.625 274.081 476.674 272.178 474.734 274.523C473.336 276.161 471.595 276.97 470.425 277.401C470.206 277.447 469.984 277.573 469.787 277.748L475.026 277.797L475.952 281.413L476.293 286.004L479.735 302.8C479.735 302.8 474.88 305.462 470.008 307.352ZM458.31 297.357L457.917 295.47C457.752 295.538 457.585 295.608 457.415 295.678C451.848 298.005 452.17 297.845 451.781 298.011C450.947 298.267 450.135 298.471 449.364 298.633L455.36 297.783L458.31 297.357ZM513.012 633.732H469.058L470.005 619.207C475.406 620.712 479.646 621.594 494.17 622.103C495.174 622.164 496.177 622.104 497.113 622.043C504.262 621.469 509.705 620.675 513.625 619.923L517.453 633.541L513.012 633.732ZM446.057 616.205L447.972 628.646H399.825L403 621.595C408.388 620.979 415.151 619.94 423.74 618.919C433.898 617.718 441.054 617.207 446.057 616.205Z" fill="#FFD4B7"/>
<path d="M462.397 296.854L459.869 297.202L458.455 297.406C458.407 297.393 458.359 297.38 458.311 297.366L457.915 295.466L465.094 292.424C464.127 294.612 463.228 296.089 462.397 296.854Z" fill="#482D1F"/>
<path d="M431.781 273.201C432.019 274.368 432.455 276.245 431.997 277.142C431.254 278.592 428.642 275.648 428.843 273.387C428.961 272.453 429.393 272.02 429.926 271.974C430.786 271.834 431.572 272.361 431.781 273.201ZM445.996 270.724C446.234 271.892 446.669 273.768 446.212 274.665C445.468 276.115 442.856 273.172 443.058 270.911C443.176 269.977 443.608 269.544 444.141 269.498C445.001 269.358 445.787 269.884 445.996 270.724Z" fill="#482D1F"/>
<path d="M435.066 273.061L435.04 279.663C435.108 280.473 435.789 281.174 436.573 281.105C437.037 281.102 437.332 281.076 438.517 280.95C439.046 280.894 439.409 280.857 439.838 280.82C440.206 280.788 440.479 280.468 440.447 280.106C440.415 279.745 440.091 279.478 439.723 279.51C439.284 279.548 438.914 279.585 438.377 279.642C437.241 279.763 436.964 279.788 436.51 279.793C436.484 279.793 436.382 279.689 436.375 279.605L436.404 273.062C436.405 272.699 436.107 272.404 435.738 272.404C435.368 272.403 435.068 272.698 435.066 273.061Z" fill="#482D1F"/>
<path d="M441.182 284.535C441.637 284.364 442.729 283.808 442.804 283.142C442.792 283.011 442.841 282.809 442.769 282.749C442.473 282.444 441.63 282.781 440.449 283.081C438.345 283.591 436.546 283.746 436.546 283.746C436.546 283.746 437.245 284.808 437.608 285.107C438.41 285.83 440.473 284.86 441.182 284.535Z" fill="#482D1F"/>
<path d="M457.341 265.861L459.558 265.12C460.824 264.697 461.47 266.564 460.204 266.988L457.987 267.728L456.316 268.287C456.505 268.899 456.633 269.538 456.692 270.201C457.149 275.337 453.283 279.865 448.058 280.314C443.511 280.705 439.433 277.88 438.149 273.756L436.978 273.937L436.011 274.087C436.208 279.033 432.418 283.309 427.348 283.745C422.123 284.195 417.516 280.395 417.059 275.259C416.602 270.122 420.467 265.594 425.693 265.145C430.379 264.742 434.595 267.763 435.724 272.135L436.666 271.989L436.978 273.937C435.829 273.101 435.825 273.073 435.822 273.045L434.772 272.282L435.724 272.135C435.771 272.317 435.813 272.502 435.849 272.689C435.935 272.353 436.198 272.062 436.666 271.989L437.768 271.819C437.316 266.686 441.18 262.163 446.402 261.714C450.249 261.383 453.76 263.355 455.528 266.467L457.341 265.861ZM435.084 274.231C434.532 274.316 434.014 273.94 433.935 273.396C433.858 272.862 434.231 272.366 434.772 272.282L436.666 271.989L437.768 271.819C437.768 271.822 437.768 271.825 437.768 271.828C437.828 272.495 437.957 273.14 438.149 273.756L436.978 273.937L435.084 274.231ZM436.978 273.937C436.499 274.012 436.153 273.803 435.969 273.497L436.978 273.937ZM447.883 278.35C452.004 277.995 455.053 274.424 454.693 270.372C454.332 266.321 450.699 263.325 446.577 263.679C442.456 264.033 439.407 267.605 439.767 271.656C440.128 275.707 443.761 278.704 447.883 278.35ZM425.867 267.11C421.746 267.464 418.697 271.036 419.058 275.087C419.418 279.138 423.052 282.135 427.173 281.78C431.295 281.426 434.344 277.854 433.983 273.803C433.971 273.667 433.955 273.531 433.935 273.396C433.374 269.539 429.834 266.769 425.867 267.11Z" fill="#482D1F"/>
<path opacity="0.2" d="M474.235 431.548L395.746 432.754L395.74 432.775L395.501 432.758L395.198 432.762C395.054 432.765 394.914 432.745 394.78 432.705L362.667 430.344C357.514 429.966 352.77 427.396 349.638 423.287L346.029 418.553C345.173 417.431 344.62 416.109 344.421 414.712C343.778 410.197 346.916 406.016 351.43 405.373L361.025 404.006C367.602 403.069 374.28 403.081 380.853 404.042L400.663 406.938C415.704 402.211 435.775 396.002 440.786 394.932L434.564 366.056L441.919 363.169C444.363 368.748 446.655 373.969 448.793 378.832C449.166 381.726 449.598 384.606 450.104 387.468C455.043 413.297 460.767 428.734 474.235 431.548Z" fill="#8C2A00"/>
<path d="M481.754 365.78C481.596 365.258 481.899 364.709 482.431 364.554C482.962 364.399 483.52 364.697 483.678 365.219L490.299 387.178C490.457 387.7 490.154 388.249 489.622 388.403C489.091 388.558 488.533 388.26 488.375 387.738L481.754 365.78ZM523.66 355.052C523.106 355.048 522.66 354.603 522.665 354.058C522.669 353.514 523.121 353.075 523.675 353.08C526.468 353.1 529.088 352.7 531.54 351.881C532.065 351.705 532.635 351.981 532.813 352.497C532.992 353.013 532.711 353.573 532.186 353.748C529.517 354.64 526.673 355.074 523.66 355.052Z" fill="#482D1F"/>
<path d="M468.143 277.163C469.16 276.872 472.169 276.223 474.015 273.99C475.961 271.711 476.918 268.131 475.482 264.823C474.191 261.634 470.754 259.224 467.562 259.565C465.768 259.785 464.378 260.762 464.19 260.91C461.992 262.617 461.113 264.805 461.113 264.805L460.582 266.332C460.317 265.991 460.063 265.672 459.821 265.378C454.702 260.67 451.746 257.404 446.561 252.703C443.954 253.587 427.217 259.443 425.959 258.891C425.959 252.211 428.444 250.061 428.864 249.497C430.477 247.246 432.835 245.062 434.94 243.825C439.951 241.283 445.803 240.647 449.103 240.759C449.575 240.785 451.058 240.855 453.147 240.94C453.753 240.954 454.358 240.967 455.097 240.97C456.841 240.952 458.185 240.968 458.991 240.965C469.177 240.749 473.015 239.363 478.318 241.613C478.627 241.753 479.063 241.955 479.577 242.233C479.929 241.323 480.341 240.477 480.75 239.693C491.964 218.336 505.583 223.171 505.583 223.25C505.583 223.329 515.904 223.329 518.544 233.675C518.807 234.703 520.657 241.964 517.699 247.952C513.73 255.786 501.894 260.609 488.428 257.317C488.594 259.607 488.434 261.484 488.365 262.461C487.63 270.048 483.423 274.831 482.193 276.851C480.552 279.544 478.526 282.254 476.114 284.98C473.105 283.204 470.802 281.13 469.203 278.76C468.857 278.238 468.503 277.704 468.143 277.163Z" fill="#482D1F"/>
<path d="M334.81 414.869C342.36 407.492 357.772 401.709 383.239 416.282C387.123 418.432 385.706 425.189 381.401 425.178L337.03 424.879C333.695 424.901 332.292 417.351 334.81 414.869Z" fill="#585859"/>
<path d="M246.084 555.39H255.524C260.391 556.894 263.461 560.084 264.734 564.96C266.006 569.835 262.936 574.512 255.524 578.991L255.447 578.975L255.454 578.991H138.842C131.43 574.512 128.359 569.835 129.632 564.96C130.905 560.084 133.975 556.894 138.842 555.39H246.084Z" fill="#429EBD"/>
<path d="M292.867 264.562H80.7447C72.4153 264.562 65.6129 258.395 65.6129 250.844V124.175C65.6129 116.624 72.4153 110.457 80.7447 110.457H292.867C301.196 110.457 307.999 116.624 307.999 124.175V250.781C307.999 258.395 301.196 264.562 292.867 264.562Z" fill="#F2F6FB"/>
<path d="M65.6824 109.628C65.6824 101.958 71.8986 95.7408 79.5657 95.7408H294.046C301.714 95.7408 307.929 101.962 307.929 109.628V125.59H65.6824V109.628Z" fill="#E1E5F0"/>
<path d="M102.991 181.817H129.715C131.919 181.817 133.706 183.605 133.706 185.809C133.706 188.013 131.919 189.8 129.715 189.8H102.991C100.787 189.8 99 188.013 99 185.809C99 183.605 100.787 181.817 102.991 181.817ZM102.991 226.244H129.715C131.919 226.244 133.706 228.031 133.706 230.236C133.706 232.44 131.919 234.227 129.715 234.227H102.991C100.787 234.227 99 232.44 99 230.236C99 228.031 100.787 226.244 102.991 226.244ZM143.944 181.817H170.668C172.872 181.817 174.659 183.605 174.659 185.809C174.659 188.013 172.872 189.8 170.668 189.8H143.944C141.74 189.8 139.953 188.013 139.953 185.809C139.953 183.605 141.74 181.817 143.944 181.817ZM143.944 226.244H170.668C172.872 226.244 174.659 228.031 174.659 230.236C174.659 232.44 172.872 234.227 170.668 234.227H143.944C141.74 234.227 139.953 232.44 139.953 230.236C139.953 228.031 141.74 226.244 143.944 226.244ZM184.897 181.817H211.621C213.825 181.817 215.612 183.605 215.612 185.809C215.612 188.013 213.825 189.8 211.621 189.8H184.897C182.693 189.8 180.906 188.013 180.906 185.809C180.906 183.605 182.693 181.817 184.897 181.817ZM184.897 226.244H211.621C213.825 226.244 215.612 228.031 215.612 230.236C215.612 232.44 213.825 234.227 211.621 234.227H184.897C182.693 234.227 180.906 232.44 180.906 230.236C180.906 228.031 182.693 226.244 184.897 226.244ZM102.991 159.604H152.621C154.825 159.604 156.612 161.391 156.612 163.596C156.612 165.8 154.825 167.587 152.621 167.587H102.991C100.787 167.587 99 165.8 99 163.596C99 161.391 100.787 159.604 102.991 159.604ZM215.438 159.604H271.315C273.519 159.604 275.306 161.391 275.306 163.596C275.306 165.8 273.519 167.587 271.315 167.587H215.438C213.234 167.587 211.447 165.8 211.447 163.596C211.447 161.391 213.234 159.604 215.438 159.604ZM215.438 204.031H271.315C273.519 204.031 275.306 205.818 275.306 208.022C275.306 210.227 273.519 212.014 271.315 212.014H215.438C213.234 212.014 211.447 210.227 211.447 208.022C211.447 205.818 213.234 204.031 215.438 204.031ZM166.85 204.031H176.915C179.119 204.031 180.906 205.818 180.906 208.022C180.906 210.227 179.119 212.014 176.915 212.014H166.85C164.646 212.014 162.859 210.227 162.859 208.022C162.859 205.818 164.646 204.031 166.85 204.031ZM191.144 159.604H201.209C203.413 159.604 205.2 161.391 205.2 163.596C205.2 165.8 203.413 167.587 201.209 167.587H191.144C188.94 167.587 187.153 165.8 187.153 163.596C187.153 161.391 188.94 159.604 191.144 159.604ZM225.85 181.817H271.315C273.519 181.817 275.306 183.605 275.306 185.809C275.306 188.013 273.519 189.8 271.315 189.8H225.85C223.646 189.8 221.859 188.013 221.859 185.809C221.859 183.605 223.646 181.817 225.85 181.817Z" fill="#E1E5F0"/>
<path d="M102.991 204.031H152.621C154.825 204.031 156.612 205.818 156.612 208.022C156.612 210.227 154.825 212.014 152.621 212.014H102.991C100.787 212.014 99 210.227 99 208.022C99 205.818 100.787 204.031 102.991 204.031ZM191.144 204.031H201.209C203.413 204.031 205.2 205.818 205.2 208.022C205.2 210.227 203.413 212.014 201.209 212.014H191.144C188.94 212.014 187.153 210.227 187.153 208.022C187.153 205.818 188.94 204.031 191.144 204.031Z" fill="#429EBD"/>
<path d="M166.85 159.604H176.915C179.119 159.604 180.906 161.391 180.906 163.596C180.906 165.8 179.119 167.587 176.915 167.587H166.85C164.646 167.587 162.859 165.8 162.859 163.596C162.859 161.391 164.646 159.604 166.85 159.604ZM225.85 226.244H271.315C273.519 226.244 275.306 228.031 275.306 230.236C275.306 232.44 273.519 234.227 271.315 234.227H225.85C223.646 234.227 221.859 232.44 221.859 230.236C221.859 228.031 223.646 226.244 225.85 226.244Z" fill="#585859"/>
<path d="M101.082 74.2217H14.3176C6.65064 74.2217 0.435294 80.4374 0.435294 88.105V131.837C0.435294 139.505 6.65064 145.721 14.3176 145.721H101.082C108.749 145.721 114.965 139.505 114.965 131.837V88.105C114.965 80.4374 108.749 74.2217 101.082 74.2217Z" fill="#DF6F3A"/>
<path fill-rule="evenodd" clip-rule="evenodd" d="M37.4591 93.6583L14.3176 112.279L38.6118 125.59" fill="#DF6F3A"/>
<path d="M37.4591 93.6583L14.3176 112.279L38.6118 125.59" stroke="white" stroke-width="10" stroke-linecap="round" stroke-linejoin="round"/>
<path fill-rule="evenodd" clip-rule="evenodd" d="M75.7738 125.59L99 109.659L74.7059 93.6583" fill="#DF6F3A"/>
<path d="M75.7738 125.59L99 109.659L74.7059 93.6583" stroke="white" stroke-width="10" stroke-linecap="round" stroke-linejoin="round"/>
<path fill-rule="evenodd" clip-rule="evenodd" d="M51.1059 133.493L61.679 86.9763L51.1059 133.493Z" fill="#DF6F3A"/>
<path d="M51.1059 133.493L61.679 86.9763" stroke="white" stroke-width="10" stroke-linecap="round" stroke-linejoin="round"/>
<path d="M126.418 577.505C126.532 577.497 126.648 577.493 126.765 577.493H264.894C267.578 577.493 269.753 579.668 269.753 582.352C269.753 585.035 267.578 587.211 264.894 587.211H126.765C126.648 587.211 126.532 587.207 126.418 587.199V670.858C126.418 673.542 124.242 675.717 121.559 675.717C118.875 675.717 116.7 673.542 116.7 670.858L116.7 429.982C116.7 427.644 118.352 425.691 120.552 425.227C121.174 424.938 121.868 424.776 122.6 424.776H535.6C538.283 424.776 540.459 426.951 540.459 429.635C540.459 432.319 538.283 434.494 535.6 434.494H126.418V577.505Z" fill="#D8DEED"/>
<path d="M222.327 414.365L229.002 387.43H178.894C173.688 387.43 169.384 383.473 169.384 378.683V302.394C169.315 297.535 173.549 293.578 178.824 293.578H331.322C336.528 293.578 340.831 297.535 340.831 302.325V378.683C340.831 383.473 336.528 387.43 331.322 387.43H270.257L267.501 414.365H285.58C288.357 414.365 290.509 416.586 290.509 419.293C290.509 422.07 288.288 424.222 285.58 424.222H208.186C205.41 424.222 203.258 422.001 203.258 419.293C203.119 416.586 205.41 414.365 208.186 414.365H222.327Z" fill="#585859"/>
<path fill-rule="evenodd" clip-rule="evenodd" d="M272.325 367.798L272.531 414.434H267.555L272.325 367.798Z" fill="white"/>
</g>
<defs>
<clipPath id="clip0_31_276">
<rect width="619" height="676" fill="white"/>
</clipPath>
</defs>
</svg>
